<mxfile host="Electron" modified="2024-12-29T06:22:09.276Z" agent="Mozilla/5.0 (Windows NT 10.0; Win64; x64) AppleWebKit/537.36 (KHTML, like Gecko) draw.io/22.1.21 Chrome/120.0.6099.109 Electron/28.1.0 Safari/537.36" etag="tT3b91C1WZlkyqxHw4bv" version="22.1.21" type="device">
  <diagram name="ページ1" id="XXqW_BxXPpmcOgEpPx_O">
    <mxGraphModel dx="1584" dy="2376" grid="1" gridSize="10" guides="1" tooltips="1" connect="1" arrows="1" fold="1" page="1" pageScale="1" pageWidth="827" pageHeight="1169" math="0" shadow="0">
      <root>
        <mxCell id="0" />
        <mxCell id="1" parent="0" />
        <mxCell id="lw04s7_Prw4xMDto7huJ-26" value="f" style="rounded=0;whiteSpace=wrap;html=1;" vertex="1" parent="1">
          <mxGeometry x="550" y="480" width="500" height="780" as="geometry" />
        </mxCell>
        <mxCell id="lw04s7_Prw4xMDto7huJ-3" value="" style="verticalLabelPosition=bottom;verticalAlign=top;html=1;shape=mxgraph.basic.rect;fillColor2=none;strokeWidth=1;size=20;indent=5;dashed=1;dashPattern=8 8;" vertex="1" parent="1">
          <mxGeometry x="10" y="18" width="340" height="230" as="geometry" />
        </mxCell>
        <mxCell id="QuQZWgEp58oZCpZpvHey-4" value="" style="endArrow=classic;html=1;rounded=0;exitX=1;exitY=0.5;exitDx=0;exitDy=0;" parent="1" source="QuQZWgEp58oZCpZpvHey-6" target="QuQZWgEp58oZCpZpvHey-5" edge="1">
          <mxGeometry width="50" height="50" relative="1" as="geometry">
            <mxPoint x="300" y="240" as="sourcePoint" />
            <mxPoint x="440" y="410" as="targetPoint" />
          </mxGeometry>
        </mxCell>
        <mxCell id="QuQZWgEp58oZCpZpvHey-5" value="1" style="shape=ellipse;html=1;dashed=0;whiteSpace=wrap;aspect=fixed;strokeWidth=5;perimeter=ellipsePerimeter;" parent="1" vertex="1">
          <mxGeometry x="520" y="55" width="60" height="60" as="geometry" />
        </mxCell>
        <mxCell id="QuQZWgEp58oZCpZpvHey-6" value="GW" style="html=1;dashed=0;whiteSpace=wrap;" parent="1" vertex="1">
          <mxGeometry x="230" y="60" width="100" height="50" as="geometry" />
        </mxCell>
        <mxCell id="QuQZWgEp58oZCpZpvHey-10" value="1" style="text;html=1;align=center;verticalAlign=middle;resizable=0;points=[];autosize=1;strokeColor=none;fillColor=none;" parent="1" vertex="1">
          <mxGeometry x="490" y="55" width="30" height="30" as="geometry" />
        </mxCell>
        <mxCell id="QuQZWgEp58oZCpZpvHey-12" value="センサー情報送信" style="text;html=1;align=center;verticalAlign=middle;resizable=0;points=[];autosize=1;strokeColor=none;fillColor=none;" parent="1" vertex="1">
          <mxGeometry x="370" y="60" width="120" height="30" as="geometry" />
        </mxCell>
        <mxCell id="QuQZWgEp58oZCpZpvHey-13" value="ユーザ" style="html=1;dashed=0;whiteSpace=wrap;" parent="1" vertex="1">
          <mxGeometry x="830" y="60" width="100" height="50" as="geometry" />
        </mxCell>
        <mxCell id="QuQZWgEp58oZCpZpvHey-16" value="1" style="text;html=1;align=center;verticalAlign=middle;resizable=0;points=[];autosize=1;strokeColor=none;fillColor=none;" parent="1" vertex="1">
          <mxGeometry x="580" y="55" width="30" height="30" as="geometry" />
        </mxCell>
        <mxCell id="QuQZWgEp58oZCpZpvHey-17" value="動物経路参照リクエスト&lt;br&gt;ユーザ登録&lt;br&gt;ログイン情報" style="text;html=1;align=center;verticalAlign=middle;resizable=0;points=[];autosize=1;strokeColor=none;fillColor=none;" parent="1" vertex="1">
          <mxGeometry x="635" y="25" width="160" height="60" as="geometry" />
        </mxCell>
        <mxCell id="QuQZWgEp58oZCpZpvHey-26" value="GW" style="html=1;dashed=0;whiteSpace=wrap;" parent="1" vertex="1">
          <mxGeometry x="200" y="620" width="100" height="50" as="geometry" />
        </mxCell>
        <mxCell id="QuQZWgEp58oZCpZpvHey-27" value="" style="endArrow=classic;html=1;rounded=0;entryX=0;entryY=0.5;entryDx=0;entryDy=0;" parent="1" target="QuQZWgEp58oZCpZpvHey-34" edge="1">
          <mxGeometry width="50" height="50" relative="1" as="geometry">
            <mxPoint x="300" y="645" as="sourcePoint" />
            <mxPoint x="470" y="645" as="targetPoint" />
          </mxGeometry>
        </mxCell>
        <mxCell id="QuQZWgEp58oZCpZpvHey-29" value="センサーデータ+GWID" style="text;html=1;align=center;verticalAlign=middle;resizable=0;points=[];autosize=1;strokeColor=none;fillColor=none;" parent="1" vertex="1">
          <mxGeometry x="315" y="620" width="150" height="30" as="geometry" />
        </mxCell>
        <mxCell id="QuQZWgEp58oZCpZpvHey-31" value="センサーデータファイル" style="html=1;dashed=0;whiteSpace=wrap;shape=partialRectangle;right=0;left=0;" parent="1" vertex="1">
          <mxGeometry x="717.5" y="830" width="142.5" height="40" as="geometry" />
        </mxCell>
        <mxCell id="QuQZWgEp58oZCpZpvHey-33" value="センサーデータ" style="text;html=1;align=center;verticalAlign=middle;resizable=0;points=[];autosize=1;strokeColor=none;fillColor=none;rotation=90;" parent="1" vertex="1">
          <mxGeometry x="785" y="740" width="110" height="30" as="geometry" />
        </mxCell>
        <mxCell id="QuQZWgEp58oZCpZpvHey-34" value="analyzer node" style="shape=ellipse;html=1;dashed=0;whiteSpace=wrap;perimeter=ellipsePerimeter;" parent="1" vertex="1">
          <mxGeometry x="790" y="615" width="70" height="60" as="geometry" />
        </mxCell>
        <mxCell id="QuQZWgEp58oZCpZpvHey-38" value="" style="endArrow=classic;html=1;rounded=0;exitX=0.75;exitY=0;exitDx=0;exitDy=0;entryX=0.5;entryY=1;entryDx=0;entryDy=0;" parent="1" source="QuQZWgEp58oZCpZpvHey-31" target="QuQZWgEp58oZCpZpvHey-34" edge="1">
          <mxGeometry width="50" height="50" relative="1" as="geometry">
            <mxPoint x="490" y="760" as="sourcePoint" />
            <mxPoint x="540" y="710" as="targetPoint" />
            <Array as="points">
              <mxPoint x="825" y="750" />
            </Array>
          </mxGeometry>
        </mxCell>
        <mxCell id="QuQZWgEp58oZCpZpvHey-41" value="解析経路ファイル" style="html=1;dashed=0;whiteSpace=wrap;shape=partialRectangle;right=0;left=0;" parent="1" vertex="1">
          <mxGeometry x="910" y="730" width="100" height="30" as="geometry" />
        </mxCell>
        <mxCell id="QuQZWgEp58oZCpZpvHey-42" value="" style="endArrow=classic;html=1;rounded=0;exitX=1;exitY=0.5;exitDx=0;exitDy=0;entryX=0.5;entryY=0;entryDx=0;entryDy=0;" parent="1" source="QuQZWgEp58oZCpZpvHey-34" target="QuQZWgEp58oZCpZpvHey-41" edge="1">
          <mxGeometry width="50" height="50" relative="1" as="geometry">
            <mxPoint x="590" y="760" as="sourcePoint" />
            <mxPoint x="640" y="710" as="targetPoint" />
            <Array as="points">
              <mxPoint x="960" y="645" />
            </Array>
          </mxGeometry>
        </mxCell>
        <mxCell id="QuQZWgEp58oZCpZpvHey-43" value="解析経路" style="text;html=1;align=center;verticalAlign=middle;resizable=0;points=[];autosize=1;strokeColor=none;fillColor=none;" parent="1" vertex="1">
          <mxGeometry x="880" y="620" width="70" height="30" as="geometry" />
        </mxCell>
        <mxCell id="QuQZWgEp58oZCpZpvHey-44" value="正解経路ファイル" style="html=1;dashed=0;whiteSpace=wrap;shape=partialRectangle;right=0;left=0;" parent="1" vertex="1">
          <mxGeometry x="590" y="830" width="115" height="40" as="geometry" />
        </mxCell>
        <mxCell id="QuQZWgEp58oZCpZpvHey-45" value="" style="endArrow=classic;html=1;rounded=0;exitX=0;exitY=1;exitDx=0;exitDy=0;entryX=0.5;entryY=0;entryDx=0;entryDy=0;" parent="1" source="QuQZWgEp58oZCpZpvHey-34" target="QuQZWgEp58oZCpZpvHey-44" edge="1">
          <mxGeometry width="50" height="50" relative="1" as="geometry">
            <mxPoint x="580.251262658471" y="662.6776695296637" as="sourcePoint" />
            <mxPoint x="640" y="710" as="targetPoint" />
            <Array as="points">
              <mxPoint x="648" y="666" />
            </Array>
          </mxGeometry>
        </mxCell>
        <mxCell id="QuQZWgEp58oZCpZpvHey-46" value="正解経路" style="text;html=1;align=center;verticalAlign=middle;resizable=0;points=[];autosize=1;strokeColor=none;fillColor=none;rotation=270;" parent="1" vertex="1">
          <mxGeometry x="600" y="730" width="70" height="30" as="geometry" />
        </mxCell>
        <mxCell id="QuQZWgEp58oZCpZpvHey-47" value="visualizer node" style="shape=ellipse;html=1;dashed=0;whiteSpace=wrap;perimeter=ellipsePerimeter;" parent="1" vertex="1">
          <mxGeometry x="720" y="950" width="80" height="60" as="geometry" />
        </mxCell>
        <mxCell id="QuQZWgEp58oZCpZpvHey-49" value="" style="edgeStyle=orthogonalEdgeStyle;rounded=0;orthogonalLoop=1;jettySize=auto;html=1;" parent="1" source="QuQZWgEp58oZCpZpvHey-48" target="QuQZWgEp58oZCpZpvHey-47" edge="1">
          <mxGeometry relative="1" as="geometry" />
        </mxCell>
        <mxCell id="QuQZWgEp58oZCpZpvHey-48" value="ユーザ" style="html=1;dashed=0;whiteSpace=wrap;" parent="1" vertex="1">
          <mxGeometry x="200" y="955" width="100" height="50" as="geometry" />
        </mxCell>
        <mxCell id="QuQZWgEp58oZCpZpvHey-50" value="動物経路リクエスト&lt;br&gt;ユーザ登録情報&lt;br&gt;ログイン情報" style="text;html=1;align=center;verticalAlign=middle;resizable=0;points=[];autosize=1;strokeColor=none;fillColor=none;" parent="1" vertex="1">
          <mxGeometry x="370" y="928" width="130" height="60" as="geometry" />
        </mxCell>
        <mxCell id="QuQZWgEp58oZCpZpvHey-55" value="" style="endArrow=classic;html=1;rounded=0;exitX=0.5;exitY=1;exitDx=0;exitDy=0;entryX=0.5;entryY=1;entryDx=0;entryDy=0;" parent="1" source="QuQZWgEp58oZCpZpvHey-47" target="QuQZWgEp58oZCpZpvHey-48" edge="1">
          <mxGeometry width="50" height="50" relative="1" as="geometry">
            <mxPoint x="490" y="880" as="sourcePoint" />
            <mxPoint x="540" y="810" as="targetPoint" />
            <Array as="points">
              <mxPoint x="760" y="1080" />
              <mxPoint x="250" y="1080" />
            </Array>
          </mxGeometry>
        </mxCell>
        <mxCell id="QuQZWgEp58oZCpZpvHey-56" value="正解経路&lt;br&gt;解析結果&lt;br&gt;メール通知" style="text;html=1;align=center;verticalAlign=middle;resizable=0;points=[];autosize=1;strokeColor=none;fillColor=none;" parent="1" vertex="1">
          <mxGeometry x="395" y="1020" width="80" height="60" as="geometry" />
        </mxCell>
        <mxCell id="QuQZWgEp58oZCpZpvHey-57" value="" style="endArrow=classic;html=1;rounded=0;exitX=0.5;exitY=1;exitDx=0;exitDy=0;entryX=1;entryY=0.5;entryDx=0;entryDy=0;" parent="1" source="QuQZWgEp58oZCpZpvHey-41" target="QuQZWgEp58oZCpZpvHey-47" edge="1">
          <mxGeometry width="50" height="50" relative="1" as="geometry">
            <mxPoint x="590" y="860" as="sourcePoint" />
            <mxPoint x="640" y="810" as="targetPoint" />
            <Array as="points">
              <mxPoint x="960" y="980" />
            </Array>
          </mxGeometry>
        </mxCell>
        <mxCell id="QuQZWgEp58oZCpZpvHey-58" value="解析結果リスト&lt;br&gt;解析経路" style="text;html=1;align=center;verticalAlign=middle;resizable=0;points=[];autosize=1;strokeColor=none;fillColor=none;" parent="1" vertex="1">
          <mxGeometry x="827" y="948" width="110" height="40" as="geometry" />
        </mxCell>
        <mxCell id="QuQZWgEp58oZCpZpvHey-61" value="ユーザDB" style="html=1;dashed=0;whiteSpace=wrap;shape=partialRectangle;right=0;left=0;" parent="1" vertex="1">
          <mxGeometry x="910" y="1139" width="100" height="30" as="geometry" />
        </mxCell>
        <mxCell id="QuQZWgEp58oZCpZpvHey-62" value="" style="endArrow=classic;html=1;rounded=0;exitX=1;exitY=1;exitDx=0;exitDy=0;entryX=0.5;entryY=0;entryDx=0;entryDy=0;" parent="1" source="QuQZWgEp58oZCpZpvHey-47" target="lw04s7_Prw4xMDto7huJ-24" edge="1">
          <mxGeometry width="50" height="50" relative="1" as="geometry">
            <mxPoint x="590" y="960" as="sourcePoint" />
            <mxPoint x="960" y="1060" as="targetPoint" />
            <Array as="points">
              <mxPoint x="960" y="1001" />
            </Array>
          </mxGeometry>
        </mxCell>
        <mxCell id="QuQZWgEp58oZCpZpvHey-63" value="ユーザ登録情報" style="text;html=1;align=center;verticalAlign=middle;resizable=0;points=[];autosize=1;strokeColor=none;fillColor=none;" parent="1" vertex="1">
          <mxGeometry x="820" y="998" width="110" height="30" as="geometry" />
        </mxCell>
        <mxCell id="CGqRwousHx3kjuioSbcm-82" value="ユーザDB" style="shape=table;startSize=30;container=1;collapsible=1;childLayout=tableLayout;fixedRows=1;rowLines=0;fontStyle=1;align=center;resizeLast=1;html=1;whiteSpace=wrap;" parent="1" vertex="1">
          <mxGeometry x="1100" y="605" width="180" height="240" as="geometry" />
        </mxCell>
        <mxCell id="CGqRwousHx3kjuioSbcm-83" value="" style="shape=tableRow;horizontal=0;startSize=0;swimlaneHead=0;swimlaneBody=0;fillColor=none;collapsible=0;dropTarget=0;points=[[0,0.5],[1,0.5]];portConstraint=eastwest;top=0;left=0;right=0;bottom=0;html=1;" parent="CGqRwousHx3kjuioSbcm-82" vertex="1">
          <mxGeometry y="30" width="180" height="30" as="geometry" />
        </mxCell>
        <mxCell id="CGqRwousHx3kjuioSbcm-84" value="PK" style="shape=partialRectangle;connectable=0;fillColor=none;top=0;left=0;bottom=0;right=0;fontStyle=1;overflow=hidden;html=1;whiteSpace=wrap;" parent="CGqRwousHx3kjuioSbcm-83" vertex="1">
          <mxGeometry width="60" height="30" as="geometry">
            <mxRectangle width="60" height="30" as="alternateBounds" />
          </mxGeometry>
        </mxCell>
        <mxCell id="CGqRwousHx3kjuioSbcm-85" value="id:INT" style="shape=partialRectangle;connectable=0;fillColor=none;top=0;left=0;bottom=0;right=0;align=left;spacingLeft=6;fontStyle=5;overflow=hidden;html=1;whiteSpace=wrap;" parent="CGqRwousHx3kjuioSbcm-83" vertex="1">
          <mxGeometry x="60" width="120" height="30" as="geometry">
            <mxRectangle width="120" height="30" as="alternateBounds" />
          </mxGeometry>
        </mxCell>
        <mxCell id="CGqRwousHx3kjuioSbcm-104" style="shape=tableRow;horizontal=0;startSize=0;swimlaneHead=0;swimlaneBody=0;fillColor=none;collapsible=0;dropTarget=0;points=[[0,0.5],[1,0.5]];portConstraint=eastwest;top=0;left=0;right=0;bottom=0;html=1;fontStyle=1" parent="CGqRwousHx3kjuioSbcm-82" vertex="1">
          <mxGeometry y="60" width="180" height="30" as="geometry" />
        </mxCell>
        <mxCell id="CGqRwousHx3kjuioSbcm-105" value="FK" style="shape=partialRectangle;connectable=0;fillColor=none;top=0;left=0;bottom=0;right=0;fontStyle=1;overflow=hidden;html=1;whiteSpace=wrap;" parent="CGqRwousHx3kjuioSbcm-104" vertex="1">
          <mxGeometry width="60" height="30" as="geometry">
            <mxRectangle width="60" height="30" as="alternateBounds" />
          </mxGeometry>
        </mxCell>
        <mxCell id="CGqRwousHx3kjuioSbcm-106" value="gw_id:INT" style="shape=partialRectangle;connectable=0;fillColor=none;top=0;left=0;bottom=0;right=0;align=left;spacingLeft=6;fontStyle=5;overflow=hidden;html=1;whiteSpace=wrap;" parent="CGqRwousHx3kjuioSbcm-104" vertex="1">
          <mxGeometry x="60" width="120" height="30" as="geometry">
            <mxRectangle width="120" height="30" as="alternateBounds" />
          </mxGeometry>
        </mxCell>
        <mxCell id="CGqRwousHx3kjuioSbcm-89" value="" style="shape=tableRow;horizontal=0;startSize=0;swimlaneHead=0;swimlaneBody=0;fillColor=none;collapsible=0;dropTarget=0;points=[[0,0.5],[1,0.5]];portConstraint=eastwest;top=0;left=0;right=0;bottom=0;html=1;" parent="CGqRwousHx3kjuioSbcm-82" vertex="1">
          <mxGeometry y="90" width="180" height="30" as="geometry" />
        </mxCell>
        <mxCell id="CGqRwousHx3kjuioSbcm-90" value="" style="shape=partialRectangle;connectable=0;fillColor=none;top=0;left=0;bottom=0;right=0;editable=1;overflow=hidden;html=1;whiteSpace=wrap;" parent="CGqRwousHx3kjuioSbcm-89" vertex="1">
          <mxGeometry width="60" height="30" as="geometry">
            <mxRectangle width="60" height="30" as="alternateBounds" />
          </mxGeometry>
        </mxCell>
        <mxCell id="CGqRwousHx3kjuioSbcm-91" value="name:CHAR" style="shape=partialRectangle;connectable=0;fillColor=none;top=0;left=0;bottom=0;right=0;align=left;spacingLeft=6;overflow=hidden;html=1;whiteSpace=wrap;" parent="CGqRwousHx3kjuioSbcm-89" vertex="1">
          <mxGeometry x="60" width="120" height="30" as="geometry">
            <mxRectangle width="120" height="30" as="alternateBounds" />
          </mxGeometry>
        </mxCell>
        <mxCell id="CGqRwousHx3kjuioSbcm-92" value="" style="shape=tableRow;horizontal=0;startSize=0;swimlaneHead=0;swimlaneBody=0;fillColor=none;collapsible=0;dropTarget=0;points=[[0,0.5],[1,0.5]];portConstraint=eastwest;top=0;left=0;right=0;bottom=0;html=1;" parent="CGqRwousHx3kjuioSbcm-82" vertex="1">
          <mxGeometry y="120" width="180" height="30" as="geometry" />
        </mxCell>
        <mxCell id="CGqRwousHx3kjuioSbcm-93" value="" style="shape=partialRectangle;connectable=0;fillColor=none;top=0;left=0;bottom=0;right=0;editable=1;overflow=hidden;html=1;whiteSpace=wrap;" parent="CGqRwousHx3kjuioSbcm-92" vertex="1">
          <mxGeometry width="60" height="30" as="geometry">
            <mxRectangle width="60" height="30" as="alternateBounds" />
          </mxGeometry>
        </mxCell>
        <mxCell id="CGqRwousHx3kjuioSbcm-94" value="gender:CHAR" style="shape=partialRectangle;connectable=0;fillColor=none;top=0;left=0;bottom=0;right=0;align=left;spacingLeft=6;overflow=hidden;html=1;whiteSpace=wrap;" parent="CGqRwousHx3kjuioSbcm-92" vertex="1">
          <mxGeometry x="60" width="120" height="30" as="geometry">
            <mxRectangle width="120" height="30" as="alternateBounds" />
          </mxGeometry>
        </mxCell>
        <mxCell id="CGqRwousHx3kjuioSbcm-101" style="shape=tableRow;horizontal=0;startSize=0;swimlaneHead=0;swimlaneBody=0;fillColor=none;collapsible=0;dropTarget=0;points=[[0,0.5],[1,0.5]];portConstraint=eastwest;top=0;left=0;right=0;bottom=0;html=1;" parent="CGqRwousHx3kjuioSbcm-82" vertex="1">
          <mxGeometry y="150" width="180" height="30" as="geometry" />
        </mxCell>
        <mxCell id="CGqRwousHx3kjuioSbcm-102" style="shape=partialRectangle;connectable=0;fillColor=none;top=0;left=0;bottom=0;right=0;editable=1;overflow=hidden;html=1;whiteSpace=wrap;" parent="CGqRwousHx3kjuioSbcm-101" vertex="1">
          <mxGeometry width="60" height="30" as="geometry">
            <mxRectangle width="60" height="30" as="alternateBounds" />
          </mxGeometry>
        </mxCell>
        <mxCell id="CGqRwousHx3kjuioSbcm-103" value="age:INT" style="shape=partialRectangle;connectable=0;fillColor=none;top=0;left=0;bottom=0;right=0;align=left;spacingLeft=6;overflow=hidden;html=1;whiteSpace=wrap;" parent="CGqRwousHx3kjuioSbcm-101" vertex="1">
          <mxGeometry x="60" width="120" height="30" as="geometry">
            <mxRectangle width="120" height="30" as="alternateBounds" />
          </mxGeometry>
        </mxCell>
        <mxCell id="CGqRwousHx3kjuioSbcm-98" style="shape=tableRow;horizontal=0;startSize=0;swimlaneHead=0;swimlaneBody=0;fillColor=none;collapsible=0;dropTarget=0;points=[[0,0.5],[1,0.5]];portConstraint=eastwest;top=0;left=0;right=0;bottom=0;html=1;" parent="CGqRwousHx3kjuioSbcm-82" vertex="1">
          <mxGeometry y="180" width="180" height="30" as="geometry" />
        </mxCell>
        <mxCell id="CGqRwousHx3kjuioSbcm-99" style="shape=partialRectangle;connectable=0;fillColor=none;top=0;left=0;bottom=0;right=0;editable=1;overflow=hidden;html=1;whiteSpace=wrap;" parent="CGqRwousHx3kjuioSbcm-98" vertex="1">
          <mxGeometry width="60" height="30" as="geometry">
            <mxRectangle width="60" height="30" as="alternateBounds" />
          </mxGeometry>
        </mxCell>
        <mxCell id="CGqRwousHx3kjuioSbcm-100" value="GW lat:DOUBLE" style="shape=partialRectangle;connectable=0;fillColor=none;top=0;left=0;bottom=0;right=0;align=left;spacingLeft=6;overflow=hidden;html=1;whiteSpace=wrap;" parent="CGqRwousHx3kjuioSbcm-98" vertex="1">
          <mxGeometry x="60" width="120" height="30" as="geometry">
            <mxRectangle width="120" height="30" as="alternateBounds" />
          </mxGeometry>
        </mxCell>
        <mxCell id="CGqRwousHx3kjuioSbcm-95" style="shape=tableRow;horizontal=0;startSize=0;swimlaneHead=0;swimlaneBody=0;fillColor=none;collapsible=0;dropTarget=0;points=[[0,0.5],[1,0.5]];portConstraint=eastwest;top=0;left=0;right=0;bottom=0;html=1;" parent="CGqRwousHx3kjuioSbcm-82" vertex="1">
          <mxGeometry y="210" width="180" height="30" as="geometry" />
        </mxCell>
        <mxCell id="CGqRwousHx3kjuioSbcm-96" style="shape=partialRectangle;connectable=0;fillColor=none;top=0;left=0;bottom=0;right=0;editable=1;overflow=hidden;html=1;whiteSpace=wrap;" parent="CGqRwousHx3kjuioSbcm-95" vertex="1">
          <mxGeometry width="60" height="30" as="geometry">
            <mxRectangle width="60" height="30" as="alternateBounds" />
          </mxGeometry>
        </mxCell>
        <mxCell id="CGqRwousHx3kjuioSbcm-97" value="GW lng:DOUBLE" style="shape=partialRectangle;connectable=0;fillColor=none;top=0;left=0;bottom=0;right=0;align=left;spacingLeft=6;overflow=hidden;html=1;whiteSpace=wrap;" parent="CGqRwousHx3kjuioSbcm-95" vertex="1">
          <mxGeometry x="60" width="120" height="30" as="geometry">
            <mxRectangle width="120" height="30" as="alternateBounds" />
          </mxGeometry>
        </mxCell>
        <mxCell id="CGqRwousHx3kjuioSbcm-113" value="データベースディレクトリ" style="rounded=0;whiteSpace=wrap;html=1;" parent="1" vertex="1">
          <mxGeometry x="1540" y="1080" width="160" height="60" as="geometry" />
        </mxCell>
        <mxCell id="CGqRwousHx3kjuioSbcm-114" value="GW1" style="rounded=0;whiteSpace=wrap;html=1;" parent="1" vertex="1">
          <mxGeometry x="1410" y="1222" width="120" height="60" as="geometry" />
        </mxCell>
        <mxCell id="CGqRwousHx3kjuioSbcm-115" value="GW2" style="rounded=0;whiteSpace=wrap;html=1;" parent="1" vertex="1">
          <mxGeometry x="1560" y="1222" width="120" height="60" as="geometry" />
        </mxCell>
        <mxCell id="CGqRwousHx3kjuioSbcm-117" value="" style="endArrow=none;html=1;rounded=0;entryX=0.5;entryY=1;entryDx=0;entryDy=0;exitX=0.5;exitY=0;exitDx=0;exitDy=0;" parent="1" source="CGqRwousHx3kjuioSbcm-114" target="CGqRwousHx3kjuioSbcm-113" edge="1">
          <mxGeometry width="50" height="50" relative="1" as="geometry">
            <mxPoint x="1520" y="1212" as="sourcePoint" />
            <mxPoint x="1570" y="1162" as="targetPoint" />
            <Array as="points">
              <mxPoint x="1470" y="1172" />
              <mxPoint x="1620" y="1172" />
            </Array>
          </mxGeometry>
        </mxCell>
        <mxCell id="CGqRwousHx3kjuioSbcm-118" value="" style="endArrow=none;html=1;rounded=0;exitX=0.5;exitY=0;exitDx=0;exitDy=0;" parent="1" source="CGqRwousHx3kjuioSbcm-115" edge="1">
          <mxGeometry width="50" height="50" relative="1" as="geometry">
            <mxPoint x="1520" y="1212" as="sourcePoint" />
            <mxPoint x="1620" y="1142" as="targetPoint" />
          </mxGeometry>
        </mxCell>
        <mxCell id="CGqRwousHx3kjuioSbcm-119" value="解析結果ファイルs" style="rounded=0;whiteSpace=wrap;html=1;" parent="1" vertex="1">
          <mxGeometry x="1410" y="1342" width="120" height="60" as="geometry" />
        </mxCell>
        <mxCell id="CGqRwousHx3kjuioSbcm-120" value="正解経路ファイルs" style="rounded=0;whiteSpace=wrap;html=1;" parent="1" vertex="1">
          <mxGeometry x="1560" y="1342" width="120" height="60" as="geometry" />
        </mxCell>
        <mxCell id="CGqRwousHx3kjuioSbcm-121" value="センサーデータファイルs" style="rounded=0;whiteSpace=wrap;html=1;" parent="1" vertex="1">
          <mxGeometry x="1440" y="1520" width="160" height="60" as="geometry" />
        </mxCell>
        <mxCell id="CGqRwousHx3kjuioSbcm-122" value="" style="endArrow=none;html=1;rounded=0;entryX=0.5;entryY=1;entryDx=0;entryDy=0;" parent="1" target="CGqRwousHx3kjuioSbcm-114" edge="1">
          <mxGeometry width="50" height="50" relative="1" as="geometry">
            <mxPoint x="1530" y="1450" as="sourcePoint" />
            <mxPoint x="970" y="1242" as="targetPoint" />
            <Array as="points">
              <mxPoint x="1450" y="1350" />
              <mxPoint x="1230" y="1282" />
            </Array>
          </mxGeometry>
        </mxCell>
        <mxCell id="CGqRwousHx3kjuioSbcm-123" value="" style="endArrow=none;html=1;rounded=0;entryX=0.5;entryY=1;entryDx=0;entryDy=0;exitX=0.5;exitY=0;exitDx=0;exitDy=0;" parent="1" source="CGqRwousHx3kjuioSbcm-119" target="CGqRwousHx3kjuioSbcm-114" edge="1">
          <mxGeometry width="50" height="50" relative="1" as="geometry">
            <mxPoint x="1160" y="1322" as="sourcePoint" />
            <mxPoint x="1210" y="1272" as="targetPoint" />
          </mxGeometry>
        </mxCell>
        <mxCell id="CGqRwousHx3kjuioSbcm-124" value="" style="endArrow=none;html=1;rounded=0;entryX=0.5;entryY=1;entryDx=0;entryDy=0;exitX=0.5;exitY=0;exitDx=0;exitDy=0;" parent="1" source="CGqRwousHx3kjuioSbcm-120" target="CGqRwousHx3kjuioSbcm-114" edge="1">
          <mxGeometry width="50" height="50" relative="1" as="geometry">
            <mxPoint x="1160" y="1322" as="sourcePoint" />
            <mxPoint x="1210" y="1272" as="targetPoint" />
            <Array as="points">
              <mxPoint x="1620" y="1312" />
              <mxPoint x="1470" y="1312" />
            </Array>
          </mxGeometry>
        </mxCell>
        <mxCell id="lw04s7_Prw4xMDto7huJ-2" value="センサノード" style="html=1;dashed=0;whiteSpace=wrap;" vertex="1" parent="1">
          <mxGeometry x="20" y="60" width="100" height="50" as="geometry" />
        </mxCell>
        <mxCell id="lw04s7_Prw4xMDto7huJ-4" value="" style="endArrow=classic;html=1;rounded=0;entryX=0;entryY=0.5;entryDx=0;entryDy=0;exitX=1;exitY=0.5;exitDx=0;exitDy=0;" edge="1" parent="1" source="lw04s7_Prw4xMDto7huJ-2" target="QuQZWgEp58oZCpZpvHey-6">
          <mxGeometry width="50" height="50" relative="1" as="geometry">
            <mxPoint x="150" y="140" as="sourcePoint" />
            <mxPoint x="230" y="130" as="targetPoint" />
            <Array as="points" />
          </mxGeometry>
        </mxCell>
        <mxCell id="lw04s7_Prw4xMDto7huJ-5" value="n" style="edgeLabel;html=1;align=center;verticalAlign=middle;resizable=0;points=[];" vertex="1" connectable="0" parent="lw04s7_Prw4xMDto7huJ-4">
          <mxGeometry x="-0.8667" y="4" relative="1" as="geometry">
            <mxPoint y="-1" as="offset" />
          </mxGeometry>
        </mxCell>
        <mxCell id="lw04s7_Prw4xMDto7huJ-6" value="1" style="edgeLabel;html=1;align=center;verticalAlign=middle;resizable=0;points=[];" vertex="1" connectable="0" parent="lw04s7_Prw4xMDto7huJ-4">
          <mxGeometry x="0.7697" y="6" relative="1" as="geometry">
            <mxPoint as="offset" />
          </mxGeometry>
        </mxCell>
        <mxCell id="lw04s7_Prw4xMDto7huJ-7" value="観測情報" style="edgeLabel;html=1;align=center;verticalAlign=middle;resizable=0;points=[];" vertex="1" connectable="0" parent="lw04s7_Prw4xMDto7huJ-4">
          <mxGeometry x="-0.0355" y="5" relative="1" as="geometry">
            <mxPoint as="offset" />
          </mxGeometry>
        </mxCell>
        <mxCell id="lw04s7_Prw4xMDto7huJ-8" value="Unity" style="text;html=1;strokeColor=none;fillColor=none;align=center;verticalAlign=middle;whiteSpace=wrap;rounded=0;" vertex="1" parent="1">
          <mxGeometry x="150" y="170" width="60" height="30" as="geometry" />
        </mxCell>
        <mxCell id="lw04s7_Prw4xMDto7huJ-10" value="1" style="text;html=1;align=center;verticalAlign=middle;resizable=0;points=[];autosize=1;strokeColor=none;fillColor=none;" vertex="1" parent="1">
          <mxGeometry x="325" y="60" width="30" height="30" as="geometry" />
        </mxCell>
        <mxCell id="lw04s7_Prw4xMDto7huJ-16" value="" style="endArrow=classic;html=1;rounded=0;exitX=0;exitY=0.5;exitDx=0;exitDy=0;entryX=1;entryY=0.5;entryDx=0;entryDy=0;" edge="1" parent="1" source="QuQZWgEp58oZCpZpvHey-13" target="QuQZWgEp58oZCpZpvHey-5">
          <mxGeometry width="50" height="50" relative="1" as="geometry">
            <mxPoint x="780" y="120" as="sourcePoint" />
            <mxPoint x="700" y="210" as="targetPoint" />
          </mxGeometry>
        </mxCell>
        <mxCell id="lw04s7_Prw4xMDto7huJ-17" value="n" style="text;html=1;align=center;verticalAlign=middle;resizable=0;points=[];autosize=1;strokeColor=none;fillColor=none;" vertex="1" parent="1">
          <mxGeometry x="800" y="55" width="30" height="30" as="geometry" />
        </mxCell>
        <mxCell id="lw04s7_Prw4xMDto7huJ-18" value="" style="endArrow=classic;html=1;rounded=0;exitX=0.5;exitY=1;exitDx=0;exitDy=0;entryX=0.5;entryY=1;entryDx=0;entryDy=0;" edge="1" parent="1" source="QuQZWgEp58oZCpZpvHey-5" target="QuQZWgEp58oZCpZpvHey-13">
          <mxGeometry width="50" height="50" relative="1" as="geometry">
            <mxPoint x="838.5" y="200" as="sourcePoint" />
            <mxPoint x="591.5" y="200" as="targetPoint" />
            <Array as="points">
              <mxPoint x="550" y="180" />
              <mxPoint x="880" y="180" />
            </Array>
          </mxGeometry>
        </mxCell>
        <mxCell id="lw04s7_Prw4xMDto7huJ-19" value="メール通知&lt;br&gt;動物経路" style="text;html=1;align=center;verticalAlign=middle;resizable=0;points=[];autosize=1;strokeColor=none;fillColor=none;" vertex="1" parent="1">
          <mxGeometry x="690" y="140" width="80" height="40" as="geometry" />
        </mxCell>
        <mxCell id="lw04s7_Prw4xMDto7huJ-20" value="1" style="text;html=1;align=center;verticalAlign=middle;resizable=0;points=[];autosize=1;strokeColor=none;fillColor=none;" vertex="1" parent="1">
          <mxGeometry x="520" y="118" width="30" height="30" as="geometry" />
        </mxCell>
        <mxCell id="lw04s7_Prw4xMDto7huJ-21" value="n" style="text;html=1;align=center;verticalAlign=middle;resizable=0;points=[];autosize=1;strokeColor=none;fillColor=none;" vertex="1" parent="1">
          <mxGeometry x="850" y="110" width="30" height="30" as="geometry" />
        </mxCell>
        <mxCell id="lw04s7_Prw4xMDto7huJ-25" value="" style="edgeStyle=orthogonalEdgeStyle;rounded=0;orthogonalLoop=1;jettySize=auto;html=1;" edge="1" parent="1" source="lw04s7_Prw4xMDto7huJ-24" target="QuQZWgEp58oZCpZpvHey-61">
          <mxGeometry relative="1" as="geometry" />
        </mxCell>
        <mxCell id="lw04s7_Prw4xMDto7huJ-24" value="user_db" style="shape=ellipse;html=1;dashed=0;whiteSpace=wrap;perimeter=ellipsePerimeter;" vertex="1" parent="1">
          <mxGeometry x="920" y="1035" width="80" height="60" as="geometry" />
        </mxCell>
        <mxCell id="lw04s7_Prw4xMDto7huJ-27" value="&lt;font style=&quot;font-size: 28px;&quot;&gt;サーバ（dockerシステム）&lt;/font&gt;" style="text;html=1;strokeColor=none;fillColor=none;align=center;verticalAlign=middle;whiteSpace=wrap;rounded=0;" vertex="1" parent="1">
          <mxGeometry x="642.5" y="490" width="365" height="80" as="geometry" />
        </mxCell>
      </root>
    </mxGraphModel>
  </diagram>
</mxfile>
